<?xml version="1.0" encoding="UTF-8"?>
<svg xmlns="http://www.w3.org/2000/svg" version="1.1" width="300" height="300" viewBox="0 0 300 300"><rect x="0" y="0" width="300" height="300" fill="#fefefe"/><g transform="scale(9.677)"><g transform="translate(1.000,1.000)"><path fill-rule="evenodd" d="M9 0L9 1L8 1L8 2L9 2L9 3L8 3L8 4L10 4L10 7L11 7L11 4L12 4L12 5L13 5L13 6L12 6L12 9L13 9L13 8L14 8L14 9L15 9L15 8L14 8L14 7L15 7L15 6L16 6L16 8L17 8L17 9L18 9L18 8L17 8L17 5L14 5L14 4L12 4L12 2L13 2L13 1L11 1L11 2L10 2L10 0ZM14 0L14 1L15 1L15 2L18 2L18 3L15 3L15 4L18 4L18 5L20 5L20 3L21 3L21 0L19 0L19 1L20 1L20 2L18 2L18 1L15 1L15 0ZM10 3L10 4L11 4L11 3ZM18 3L18 4L19 4L19 3ZM8 5L8 7L9 7L9 5ZM13 6L13 7L14 7L14 6ZM18 6L18 7L19 7L19 6ZM20 6L20 7L21 7L21 6ZM0 8L0 9L1 9L1 10L2 10L2 13L3 13L3 11L4 11L4 14L5 14L5 12L6 12L6 13L7 13L7 12L8 12L8 14L6 14L6 15L7 15L7 16L4 16L4 15L3 15L3 17L2 17L2 21L4 21L4 20L5 20L5 21L8 21L8 23L9 23L9 24L8 24L8 29L10 29L10 28L9 28L9 27L10 27L10 25L9 25L9 24L11 24L11 23L10 23L10 22L9 22L9 21L10 21L10 20L9 20L9 21L8 21L8 20L5 20L5 19L7 19L7 18L8 18L8 19L10 19L10 18L8 18L8 17L11 17L11 15L10 15L10 14L11 14L11 13L12 13L12 14L13 14L13 15L12 15L12 17L13 17L13 16L14 16L14 17L16 17L16 18L15 18L15 19L14 19L14 20L15 20L15 21L12 21L12 19L13 19L13 18L11 18L11 21L12 21L12 22L13 22L13 23L12 23L12 25L13 25L13 24L14 24L14 25L16 25L16 26L15 26L15 27L14 27L14 28L15 28L15 29L18 29L18 28L15 28L15 27L17 27L17 26L19 26L19 24L17 24L17 22L18 22L18 23L20 23L20 27L19 27L19 28L21 28L21 29L22 29L22 28L21 28L21 25L25 25L25 26L22 26L22 27L23 27L23 29L24 29L24 27L25 27L25 28L26 28L26 29L27 29L27 28L28 28L28 26L29 26L29 25L27 25L27 24L26 24L26 23L27 23L27 22L29 22L29 20L28 20L28 19L27 19L27 16L28 16L28 15L27 15L27 12L28 12L28 11L27 11L27 12L25 12L25 13L21 13L21 12L22 12L22 11L23 11L23 12L24 12L24 11L25 11L25 9L26 9L26 8L25 8L25 9L24 9L24 8L23 8L23 9L22 9L22 8L20 8L20 9L19 9L19 10L17 10L17 11L16 11L16 10L15 10L15 11L14 11L14 12L15 12L15 13L12 13L12 11L13 11L13 10L11 10L11 11L10 11L10 9L11 9L11 8L6 8L6 9L5 9L5 8ZM27 8L27 9L28 9L28 10L29 10L29 9L28 9L28 8ZM3 9L3 10L4 10L4 11L5 11L5 10L4 10L4 9ZM6 9L6 10L7 10L7 9ZM20 9L20 10L19 10L19 12L18 12L18 11L17 11L17 12L18 12L18 13L20 13L20 14L19 14L19 15L18 15L18 14L17 14L17 15L16 15L16 17L17 17L17 18L16 18L16 19L15 19L15 20L18 20L18 22L19 22L19 20L22 20L22 19L23 19L23 20L24 20L24 19L25 19L25 21L26 21L26 20L27 20L27 19L25 19L25 18L24 18L24 19L23 19L23 18L22 18L22 17L26 17L26 16L27 16L27 15L26 15L26 13L25 13L25 16L24 16L24 15L23 15L23 16L22 16L22 14L21 14L21 13L20 13L20 12L21 12L21 9ZM8 10L8 12L9 12L9 10ZM23 10L23 11L24 11L24 10ZM6 11L6 12L7 12L7 11ZM10 12L10 13L9 13L9 14L8 14L8 16L7 16L7 17L6 17L6 18L7 18L7 17L8 17L8 16L9 16L9 14L10 14L10 13L11 13L11 12ZM15 13L15 14L16 14L16 13ZM28 13L28 14L29 14L29 13ZM0 14L0 15L1 15L1 14ZM14 15L14 16L15 16L15 15ZM0 16L0 21L1 21L1 16ZM17 16L17 17L18 17L18 18L17 18L17 19L18 19L18 20L19 20L19 19L18 19L18 18L20 18L20 17L21 17L21 16L20 16L20 17L18 17L18 16ZM3 17L3 19L4 19L4 18L5 18L5 17ZM28 17L28 18L29 18L29 17ZM21 18L21 19L22 19L22 18ZM15 21L15 22L16 22L16 21ZM21 21L21 24L24 24L24 21ZM22 22L22 23L23 23L23 22ZM14 23L14 24L15 24L15 23ZM25 24L25 25L26 25L26 24ZM11 26L11 29L12 29L12 27L13 27L13 26ZM25 26L25 27L26 27L26 28L27 28L27 26ZM0 0L0 7L7 7L7 0ZM1 1L1 6L6 6L6 1ZM2 2L2 5L5 5L5 2ZM29 0L22 0L22 7L29 7ZM28 1L23 1L23 6L28 6ZM27 2L24 2L24 5L27 5ZM0 29L7 29L7 22L0 22ZM1 28L6 28L6 23L1 23ZM2 27L5 27L5 24L2 24Z" fill="#000000"/></g></g></svg>
