<?xml version="1.0" encoding="UTF-8"?>
<svg xmlns="http://www.w3.org/2000/svg" version="1.1" width="300" height="300" viewBox="0 0 300 300"><rect x="0" y="0" width="300" height="300" fill="#fefefe"/><g transform="scale(9.677)"><g transform="translate(1.000,1.000)"><path fill-rule="evenodd" d="M8 0L8 1L10 1L10 0ZM14 0L14 1L13 1L13 2L11 2L11 4L10 4L10 3L9 3L9 2L8 2L8 5L9 5L9 6L8 6L8 7L9 7L9 8L8 8L8 9L9 9L9 10L8 10L8 11L7 11L7 10L6 10L6 9L7 9L7 8L6 8L6 9L4 9L4 8L0 8L0 9L1 9L1 10L0 10L0 12L1 12L1 14L0 14L0 17L1 17L1 18L0 18L0 19L1 19L1 18L4 18L4 19L2 19L2 20L1 20L1 21L2 21L2 20L3 20L3 21L4 21L4 19L5 19L5 20L6 20L6 21L7 21L7 20L8 20L8 22L9 22L9 23L14 23L14 22L15 22L15 21L14 21L14 20L13 20L13 18L14 18L14 17L12 17L12 16L14 16L14 15L15 15L15 16L16 16L16 15L15 15L15 14L17 14L17 13L18 13L18 12L15 12L15 10L14 10L14 11L11 11L11 13L10 13L10 12L9 12L9 10L10 10L10 9L9 9L9 8L10 8L10 7L11 7L11 8L12 8L12 7L13 7L13 9L19 9L19 10L20 10L20 11L19 11L19 12L20 12L20 13L19 13L19 15L20 15L20 14L21 14L21 15L22 15L22 16L21 16L21 19L20 19L20 21L19 21L19 20L18 20L18 18L17 18L17 21L16 21L16 23L18 23L18 24L14 24L14 26L13 26L13 24L12 24L12 25L11 25L11 24L10 24L10 25L11 25L11 26L10 26L10 27L9 27L9 25L8 25L8 29L11 29L11 28L12 28L12 29L13 29L13 28L12 28L12 26L13 26L13 27L14 27L14 29L15 29L15 27L14 27L14 26L17 26L17 25L19 25L19 24L20 24L20 25L21 25L21 26L18 26L18 27L19 27L19 28L18 28L18 29L19 29L19 28L20 28L20 29L21 29L21 27L22 27L22 25L23 25L23 28L24 28L24 29L25 29L25 28L26 28L26 25L27 25L27 24L29 24L29 23L28 23L28 22L29 22L29 21L27 21L27 18L28 18L28 15L29 15L29 13L27 13L27 12L26 12L26 11L28 11L28 12L29 12L29 11L28 11L28 10L29 10L29 8L28 8L28 10L26 10L26 11L24 11L24 10L25 10L25 9L27 9L27 8L24 8L24 9L22 9L22 8L21 8L21 6L20 6L20 5L21 5L21 4L20 4L20 3L21 3L21 2L20 2L20 3L19 3L19 5L18 5L18 3L17 3L17 1L16 1L16 2L14 2L14 1L15 1L15 0ZM19 0L19 1L18 1L18 2L19 2L19 1L21 1L21 0ZM12 3L12 5L10 5L10 6L9 6L9 7L10 7L10 6L11 6L11 7L12 7L12 5L13 5L13 7L14 7L14 5L13 5L13 4L15 4L15 3ZM16 4L16 5L15 5L15 7L16 7L16 6L17 6L17 7L18 7L18 5L17 5L17 4ZM19 6L19 8L20 8L20 6ZM2 9L2 10L3 10L3 11L2 11L2 12L3 12L3 13L2 13L2 14L3 14L3 13L4 13L4 12L3 12L3 11L6 11L6 12L5 12L5 15L3 15L3 16L1 16L1 17L3 17L3 16L5 16L5 15L6 15L6 16L7 16L7 17L4 17L4 18L7 18L7 19L6 19L6 20L7 20L7 19L9 19L9 21L10 21L10 18L12 18L12 17L11 17L11 16L12 16L12 14L13 14L13 15L14 15L14 14L15 14L15 12L12 12L12 14L11 14L11 15L10 15L10 13L9 13L9 12L7 12L7 11L6 11L6 10L4 10L4 9ZM20 9L20 10L21 10L21 11L20 11L20 12L21 12L21 14L22 14L22 15L23 15L23 16L22 16L22 19L23 19L23 16L24 16L24 15L25 15L25 17L24 17L24 20L26 20L26 19L25 19L25 18L26 18L26 17L27 17L27 15L25 15L25 14L27 14L27 13L25 13L25 12L22 12L22 10L21 10L21 9ZM6 12L6 13L7 13L7 12ZM13 13L13 14L14 14L14 13ZM22 13L22 14L23 14L23 15L24 15L24 14L23 14L23 13ZM6 14L6 15L8 15L8 18L10 18L10 17L9 17L9 16L10 16L10 15L9 15L9 14ZM18 16L18 17L19 17L19 16ZM15 17L15 20L16 20L16 17ZM11 19L11 20L12 20L12 19ZM11 21L11 22L12 22L12 21ZM18 21L18 23L19 23L19 21ZM21 21L21 24L24 24L24 21ZM22 22L22 23L23 23L23 22ZM26 22L26 23L25 23L25 25L26 25L26 24L27 24L27 22ZM28 25L28 27L27 27L27 29L28 29L28 27L29 27L29 25ZM24 26L24 28L25 28L25 26ZM16 28L16 29L17 29L17 28ZM0 0L0 7L7 7L7 0ZM1 1L1 6L6 6L6 1ZM2 2L2 5L5 5L5 2ZM29 0L22 0L22 7L29 7ZM28 1L23 1L23 6L28 6ZM27 2L24 2L24 5L27 5ZM0 29L7 29L7 22L0 22ZM1 28L6 28L6 23L1 23ZM2 27L5 27L5 24L2 24Z" fill="#000000"/></g></g></svg>
