<?xml version="1.0" encoding="UTF-8"?>
<svg xmlns="http://www.w3.org/2000/svg" version="1.1" width="300" height="300" viewBox="0 0 300 300"><rect x="0" y="0" width="300" height="300" fill="#fefefe"/><g transform="scale(9.677)"><g transform="translate(1.000,1.000)"><path fill-rule="evenodd" d="M9 0L9 1L8 1L8 2L9 2L9 3L8 3L8 4L10 4L10 7L11 7L11 4L12 4L12 5L13 5L13 6L12 6L12 9L13 9L13 8L14 8L14 9L15 9L15 8L14 8L14 7L15 7L15 6L16 6L16 8L17 8L17 9L18 9L18 8L17 8L17 5L14 5L14 4L12 4L12 2L13 2L13 1L11 1L11 2L10 2L10 0ZM14 0L14 2L18 2L18 3L15 3L15 4L18 4L18 5L20 5L20 3L21 3L21 0L19 0L19 1L20 1L20 2L18 2L18 1L15 1L15 0ZM10 3L10 4L11 4L11 3ZM18 3L18 4L19 4L19 3ZM8 5L8 7L9 7L9 5ZM13 6L13 7L14 7L14 6ZM18 6L18 7L19 7L19 6ZM20 6L20 7L21 7L21 6ZM0 8L0 9L1 9L1 10L3 10L3 9L4 9L4 10L5 10L5 12L2 12L2 13L1 13L1 12L0 12L0 14L1 14L1 15L0 15L0 21L1 21L1 16L2 16L2 18L5 18L5 20L4 20L4 19L2 19L2 20L4 20L4 21L8 21L8 23L9 23L9 22L10 22L10 24L8 24L8 29L9 29L9 28L11 28L11 29L12 29L12 27L13 27L13 26L11 26L11 22L10 22L10 21L12 21L12 22L13 22L13 23L12 23L12 25L13 25L13 24L14 24L14 25L16 25L16 26L15 26L15 27L14 27L14 28L15 28L15 29L18 29L18 28L15 28L15 27L17 27L17 26L19 26L19 24L17 24L17 22L18 22L18 23L20 23L20 27L19 27L19 28L21 28L21 29L22 29L22 28L21 28L21 25L25 25L25 26L22 26L22 27L23 27L23 29L24 29L24 27L25 27L25 28L26 28L26 29L27 29L27 28L28 28L28 26L29 26L29 25L27 25L27 24L26 24L26 23L27 23L27 22L29 22L29 20L28 20L28 19L27 19L27 16L28 16L28 15L27 15L27 12L28 12L28 11L27 11L27 12L25 12L25 13L21 13L21 12L22 12L22 11L23 11L23 12L24 12L24 11L25 11L25 9L26 9L26 8L25 8L25 9L24 9L24 8L23 8L23 9L22 9L22 8L20 8L20 9L19 9L19 10L17 10L17 11L16 11L16 10L15 10L15 11L14 11L14 12L15 12L15 13L12 13L12 11L13 11L13 10L11 10L11 11L10 11L10 9L11 9L11 8L6 8L6 9L7 9L7 10L5 10L5 8ZM27 8L27 9L28 9L28 10L29 10L29 9L28 9L28 8ZM20 9L20 10L19 10L19 12L18 12L18 11L17 11L17 12L18 12L18 13L20 13L20 14L19 14L19 15L18 15L18 14L17 14L17 15L16 15L16 17L14 17L14 16L15 16L15 15L14 15L14 16L13 16L13 17L12 17L12 15L13 15L13 14L12 14L12 13L11 13L11 12L10 12L10 13L5 13L5 14L2 14L2 15L3 15L3 16L4 16L4 15L6 15L6 16L5 16L5 17L6 17L6 18L7 18L7 19L6 19L6 20L8 20L8 18L10 18L10 17L11 17L11 18L13 18L13 19L12 19L12 21L15 21L15 22L16 22L16 21L15 21L15 20L18 20L18 22L19 22L19 20L22 20L22 19L23 19L23 20L24 20L24 19L25 19L25 21L26 21L26 20L27 20L27 19L25 19L25 18L24 18L24 19L23 19L23 18L22 18L22 17L26 17L26 16L27 16L27 15L26 15L26 13L25 13L25 16L24 16L24 15L23 15L23 16L22 16L22 14L21 14L21 13L20 13L20 12L21 12L21 9ZM7 10L7 11L6 11L6 12L8 12L8 11L9 11L9 10ZM23 10L23 11L24 11L24 10ZM10 13L10 15L11 15L11 13ZM15 13L15 14L16 14L16 13ZM28 13L28 14L29 14L29 13ZM6 14L6 15L7 15L7 16L6 16L6 17L7 17L7 16L9 16L9 17L10 17L10 16L9 16L9 15L7 15L7 14ZM17 16L17 17L16 17L16 18L15 18L15 19L14 19L14 20L15 20L15 19L16 19L16 18L17 18L17 19L18 19L18 20L19 20L19 19L18 19L18 18L20 18L20 17L21 17L21 16L20 16L20 17L18 17L18 16ZM17 17L17 18L18 18L18 17ZM28 17L28 18L29 18L29 17ZM21 18L21 19L22 19L22 18ZM10 19L10 20L11 20L11 19ZM21 21L21 24L24 24L24 21ZM22 22L22 23L23 23L23 22ZM14 23L14 24L15 24L15 23ZM25 24L25 25L26 25L26 24ZM9 26L9 27L10 27L10 26ZM25 26L25 27L26 27L26 28L27 28L27 26ZM0 0L0 7L7 7L7 0ZM1 1L1 6L6 6L6 1ZM2 2L2 5L5 5L5 2ZM29 0L22 0L22 7L29 7ZM28 1L23 1L23 6L28 6ZM27 2L24 2L24 5L27 5ZM0 29L7 29L7 22L0 22ZM1 28L6 28L6 23L1 23ZM2 27L5 27L5 24L2 24Z" fill="#000000"/></g></g></svg>
